<?xml version="1.0" encoding="utf-8"?>
<!-- Generator: Adobe Illustrator 22.1.0, SVG Export Plug-In . SVG Version: 6.00 Build 0)  -->
<svg version="1.1"
	 id="svg2" xmlns:cc="http://creativecommons.org/ns#" xmlns:dc="http://purl.org/dc/elements/1.1/" xmlns:rdf="http://www.w3.org/1999/02/22-rdf-syntax-ns#" xmlns:svg="http://www.w3.org/2000/svg"
	 xmlns="http://www.w3.org/2000/svg" xmlns:xlink="http://www.w3.org/1999/xlink" x="0px" y="0px" viewBox="0 0 580 217.5"
	 style="enable-background:new 0 0 580 217.5;" xml:space="preserve">
<style type="text/css">
	.st0{fill:#F68D11;}
	.st1{fill:#100F0D;}
</style>
<path id="path14" class="st0" d="M161.2,75l-33.7-11.3V15l33.8,10L161.2,75"/>
<path id="path16" class="st0" d="M170,25l33.8-10l-0.1,48.7L170,75V25"/>
<path id="path18" class="st0" d="M196.9,9.7L165.4,0l-31,9.7l31.1,8.3L196.9,9.7"/>
<path id="path20" class="st0" d="M246.2,75l-33.7-11.3V15l33.8,10L246.2,75"/>
<path id="path22" class="st0" d="M255,25l33.8-10l-0.1,48.7L255,75V25"/>
<path id="path24" class="st0" d="M281.9,9.7L250.4,0l-31,9.7l31.1,8.3L281.9,9.7"/>
<path id="path26" class="st0" d="M33.8,96.2L0,86.2V135l33.7,11.2L33.8,96.2"/>
<path id="path28" class="st0" d="M42.5,96.2l33.8-10L76.1,135l-33.6,11.3V96.2"/>
<path id="path30" class="st0" d="M69.4,81l-31.5-9.7L6.9,81L38,89.3L69.4,81"/>
<path id="path32" class="st0" d="M118.7,146.2L85,135V86.2l33.8,10L118.7,146.2"/>
<path id="path34" class="st0" d="M127.5,96.2l33.8-10l-0.1,48.7l-33.6,11.3V96.2"/>
<path id="path36" class="st0" d="M154.4,81l-31.5-9.7l-31,9.7l31.1,8.3L154.4,81"/>
<path id="path38" class="st0" d="M76.2,217.5l-33.7-11.2v-48.8l33.8,10L76.2,217.5"/>
<path id="path40" class="st0" d="M85,167.5l33.8-10l-0.1,48.7L85,217.5V167.5"/>
<path id="path42" class="st0" d="M111.9,152.2l-31.5-9.7l-31,9.7l31.1,8.3L111.9,152.2"/>
<path id="path44" class="st1" d="M225.5,174.4l-2.5,0c-0.9,0-2.1,0.6-2.4,1.6l-7.5,26.5l-7.4-26.4c-0.2-0.8-1-1.7-2.1-1.7h-2.9
	c-1.1,0-1.8,0.9-2,1.7l-6.9,26.2l-7.2-26.3c-0.3-1-1.5-1.6-2.4-1.6l-3.6,0c-0.8,0-1.5,0.3-1.9,0.9c-0.3,0.4-0.3,0.8-0.2,1.1
	l11.1,39.1c0.2,0.8,1,1.7,2,1.7h3.5c1,0,1.8-0.7,2-1.7l6.8-26.1l7.4,26.1c0.2,0.8,0.9,1.7,2,1.7h3.5c1,0,1.8-0.7,2-1.7l10.6-39.1
	c0.1-0.4,0.1-0.8-0.2-1.1C226.9,174.7,226.2,174.4,225.5,174.4"/>
<path id="path46" class="st1" d="M256.2,191h-18.7c0.4-5.3,3.8-10.7,9.6-10.9C253.2,180.3,256,185.6,256.2,191z M247,174.1
	c-12.7,0-18.4,11.2-18.4,21.6c0,13,7.2,21.4,18.3,21.4c7.9,0,14-4,16.6-11c0.1-0.4,0.1-0.8-0.1-1.2c-0.3-0.5-0.8-0.8-1.4-1l-3.5-0.7
	c-0.9-0.1-2,0.4-2.4,1.2c-1.7,3.9-4.8,6.1-8.7,6.2c-3.8-0.1-7.2-2.3-8.8-5.7c-1.3-2.7-1.5-5.4-1.5-8.1l25.5,0c0.5,0,1.1-0.2,1.5-0.6
	c0.3-0.3,0.5-0.7,0.5-1.1C264.5,184.9,259.8,174.1,247,174.1"/>
<path id="path48" class="st1" d="M295.8,195.8c0,2.4-0.4,14.4-8.9,14.7c-2.8-0.1-5.7-1.8-7.3-4.3c-1.2-1.9-1.9-4.5-2.1-7.7v-7
	c0.1-5.4,3.9-11.3,9.4-11.5C295.4,180.3,295.8,193.2,295.8,195.8L295.8,195.8z M288.2,173.8h-0.7c-4.2,0-7.5,1.7-10,5.3l0-16.5
	c0-0.9-1-1.8-2-1.8h-3.7c-1,0-2,0.8-2,1.8v51.5c0,0.9,1,1.8,2,1.8l1.1,0c1,0,1.7-0.8,2-1.6l1.1-3.6c2.7,3.8,6.7,6,11,6h0.7
	c11.3,0,16.3-11,16.3-21.9c0-5.4-1.3-10.6-3.7-14.2C297.6,176.4,293,173.8,288.2,173.8"/>
<path id="path50" class="st1" d="M344.1,194.6c-2.4-1.7-5.2-2.3-8.1-2.9l-5.5-1c-3.9-0.6-6.2-1.7-6.2-5.2c0-3.7,3.8-5.1,7-5.2
	c3.9,0.1,6.9,1.9,8.4,5c0.3,0.7,1.1,1.2,1.9,1.2c0.1,0,0.3,0,0.4,0l3.4-0.8c0.6-0.1,1.1-0.5,1.4-1c0.2-0.4,0.3-0.8,0.1-1.2
	c-2.1-6.1-7.4-9.3-15.5-9.3c-7.3,0-15.1,3.3-15.1,12.3c0,6.2,3.9,10.1,11.6,11.7l6.2,1.2c3.4,0.6,6.8,1.8,6.8,5.4
	c0,5.4-6.2,5.9-8.1,6c-4.2-0.1-9-2-10.2-6c-0.2-0.9-1.3-1.5-2.3-1.3l-3.6,0.7c-0.5,0.1-1,0.5-1.3,0.9c-0.2,0.4-0.3,0.8-0.2,1.2
	c1.9,6.6,8.3,10.6,17.1,10.7l0.2,0c7.9,0,16.4-3.4,16.4-12.9C348.8,200.3,347.1,196.8,344.1,194.6"/>
<path id="path52" class="st1" d="M380.3,191.1h-18.8c0.4-5.3,3.8-10.7,9.6-10.9C377.4,180.3,380.2,185.7,380.3,191.1z M371.2,174.2
	c-12.7,0-18.4,11.2-18.4,21.6c0,13,7.2,21.4,18.3,21.4c7.9,0,14-4,16.6-11c0.1-0.4,0.1-0.8-0.1-1.2c-0.3-0.5-0.8-0.8-1.4-1l-3.5-0.7
	c-0.8-0.1-2,0.3-2.4,1.2c-1.7,3.9-4.8,6.1-8.7,6.2c-3.8-0.1-7.2-2.4-8.8-5.7c-1.3-2.7-1.5-5.4-1.5-8.1l25.4,0c0.5,0,1.1-0.2,1.5-0.6
	c0.3-0.3,0.5-0.7,0.5-1.1C388.6,185,384,174.2,371.2,174.2"/>
<path id="path54" class="st1" d="M412.7,174.6c-0.5-0.1-1-0.1-1.4-0.1c-4.3,0-7.7,2.3-10.1,6.8l0-3.9c0-0.9-0.9-1.8-2-1.8h-3.2
	c-1,0-2,0.8-2,1.8l0,37.7c0,0.9,0.9,1.8,2,1.8l3.7,0c1,0,2.1-0.8,2.1-1.8l0-19c0-3.1,0.3-5.5,1.8-8.3c2.1-4,5.1-5.9,9.1-6
	c1,0,1.9-0.9,1.9-1.9v-3.5C414.5,175.6,413.7,174.8,412.7,174.6"/>
<path id="path56" class="st1" d="M451.6,173.9l-2.9,0c-0.9,0-2.1,0.7-2.4,1.6l-9.5,29.8l-9.7-29.8c-0.3-1-1.5-1.7-2.4-1.7l-4.2,0
	c-0.8,0-1.5,0.3-1.9,0.9c-0.3,0.4-0.3,0.8-0.2,1.1l13.3,39.4c0.3,0.8,0.9,1.7,2,1.7h5.1c0.9,0,1.7-0.6,2-1.7l12.9-39.3
	c0.1-0.4,0.1-0.8-0.2-1.1C453.2,174.2,452.4,173.9,451.6,173.9"/>
<path id="path58" class="st1" d="M461.3,158.8c-2.7,0-4.9,2.2-4.9,4.9c0,2.7,2.2,4.9,4.9,4.9c2.7,0,4.9-2.2,4.9-4.9
	C466.2,161,464,158.8,461.3,158.8"/>
<path id="path60" class="st1" d="M463.3,173.7l-4,0c-1.1,0-2.1,0.9-2.1,1.9l0,40.1c0,0.5,0.2,1,0.7,1.3c0.4,0.3,0.9,0.5,1.4,0.5l4,0
	h0c1.1,0,2.1-0.9,2.1-1.8v-40.1C465.4,174.5,464.4,173.7,463.3,173.7"/>
<path id="path62" class="st1" d="M500.8,200.8l-3.4,0c-0.9,0-1.7,0.6-2.1,1.5c-1.2,5.3-4,8-8.2,8.1c-8.2-0.2-8.8-11.7-8.8-15.2
	c0-7,2.4-14.5,9.2-14.7c4.1,0.1,7,3,7.9,7.8c0.2,1,0.9,1.7,1.9,1.8l3.6,0c1.1-0.1,1.9-0.9,1.9-1.9c-1.3-8.6-7.2-14.1-15.2-14.1
	l-0.3,0l-0.3,0c-11.6,0-16.7,10.8-16.7,21.5c0,9.8,4.4,21.3,16.7,21.3h0.6c7.8,0,13.6-5.4,15.3-14.2c0-0.4-0.1-0.8-0.4-1.2
	C502.1,201.1,501.5,200.9,500.8,200.8"/>
<path id="path64" class="st1" d="M533.9,191.1h-18.8c0.4-5.3,3.8-10.7,9.6-10.9C531,180.3,533.8,185.7,533.9,191.1z M524.8,174.2
	c-12.7,0-18.4,11.2-18.4,21.6c0,13,7.2,21.4,18.3,21.4c7.9,0,14-4,16.6-11c0.1-0.4,0.1-0.8-0.1-1.2c-0.3-0.5-0.8-0.8-1.4-1l-3.5-0.7
	c-0.8-0.1-2,0.3-2.4,1.2c-1.7,3.9-4.8,6.1-8.7,6.2c-3.8-0.1-7.2-2.4-8.8-5.7c-1.3-2.7-1.5-5.4-1.5-8.1l25.5,0c0.5,0,1.1-0.2,1.5-0.6
	c0.3-0.3,0.5-0.7,0.5-1.1C542.2,185,537.6,174.2,524.8,174.2"/>
<path id="path66" class="st1" d="M574.2,194.6c-2.4-1.7-5.2-2.3-8.1-2.9l-5.5-1c-3.9-0.6-6.2-1.7-6.2-5.2c0-4.7,5.9-5.1,7-5.2
	c4,0.1,6.9,1.9,8.4,5c0.3,0.7,1.1,1.2,1.9,1.2c0.1,0,0.3,0,0.4,0l3.4-0.8c0.6-0.1,1.1-0.5,1.4-1c0.2-0.4,0.3-0.8,0.1-1.2
	c-2.1-6.1-7.4-9.3-15.5-9.3c-7.3,0-15.1,3.3-15.1,12.3c0,6.2,3.9,10.1,11.6,11.7l6.2,1.2c3.4,0.6,6.8,1.8,6.8,5.4
	c0,5.4-6.2,5.9-8.1,6c-3.9-0.1-9-1.7-10.2-6c-0.2-0.9-1.3-1.5-2.3-1.3l-3.6,0.7c-0.5,0.1-1,0.5-1.3,0.9c-0.2,0.4-0.3,0.8-0.2,1.2
	c1.8,6.6,8.3,10.6,17.1,10.7l0.2,0c7.9,0,16.4-3.4,16.4-12.9C579,200.3,577.2,196.8,574.2,194.6"/>
<path id="path68" class="st1" d="M410.9,96.5v-9.1c0-1.4,1.1-2.3,2.3-2.3l40.8,0c1.3,0,2.4,0.9,2.4,2.3v7.8c0,1.3-1.1,3-3.1,5.7
	l-21.1,30.2c7.8-0.2,16.1,1,23.2,5c1.6,0.9,2,2.2,2.2,3.5v9.7c0,1.3-1.5,2.9-3,2.1c-12.5-6.6-29.2-7.3-43.1,0.1
	c-1.4,0.8-2.9-0.8-2.9-2.1v-9.2c0-1.5,0-4,1.5-6.3l24.5-35.1l-21.3,0C411.9,98.8,410.9,97.9,410.9,96.5"/>
<path id="path70" class="st1" d="M262.2,153.3h-12.4c-1.2-0.1-2.1-1-2.2-2.1l0-63.7c0-1.3,1.1-2.3,2.4-2.3l11.6,0
	c1.2,0.1,2.2,1,2.3,2.1v8.3h0.2c3-8,8.7-11.8,16.3-11.8c7.8,0,12.6,3.7,16.1,11.8c3-8,9.8-11.8,17.1-11.8c5.2,0,10.9,2.1,14.4,7
	c3.9,5.4,3.1,13.1,3.1,20l0,40.2c0,1.3-1.1,2.3-2.4,2.3h-12.4c-1.2-0.1-2.2-1.1-2.2-2.3v-33.8c0-2.7,0.2-9.4-0.3-11.9
	c-0.9-4.3-3.7-5.5-7.3-5.5c-3,0-6.1,2-7.4,5.2c-1.3,3.2-1.2,8.6-1.2,12.2V151c0,1.3-1.1,2.3-2.4,2.3H283c-1.2-0.1-2.2-1.1-2.2-2.3
	l0-33.8c0-7.1,1.2-17.5-7.6-17.5c-8.9,0-8.6,10.2-8.6,17.5l0,33.7C264.6,152.3,263.5,153.3,262.2,153.3"/>
<path id="path72" class="st1" d="M491.5,96.9c-9.2,0-9.7,12.5-9.7,20.2c0,7.8-0.1,24.4,9.6,24.4c9.6,0,10.1-13.4,10.1-21.6
	c0-5.4-0.2-11.8-1.9-16.9C498.3,98.7,495.5,96.9,491.5,96.9z M491.4,83.9c18.4,0,28.4,15.8,28.4,35.9c0,19.4-11,34.8-28.4,34.8
	c-18.1,0-27.9-15.8-27.9-35.5C463.5,99.3,473.5,83.9,491.4,83.9"/>
<path id="path74" class="st1" d="M543.7,153.3h-12.4c-1.2-0.1-2.2-1.1-2.2-2.3l0-63.7c0.1-1.2,1.1-2.1,2.4-2.1l11.5,0
	c1.1,0.1,2,0.8,2.2,1.8v9.7h0.2c3.5-8.7,8.3-12.9,16.9-12.9c5.6,0,11,2,14.5,7.5c3.2,5.1,3.2,13.7,3.2,19.8v40.1
	c-0.1,1.1-1.1,2-2.4,2h-12.4c-1.1-0.1-2.1-0.9-2.2-2v-34.6c0-7,0.8-17.1-7.8-17.1c-3,0-5.8,2-7.2,5.1c-1.7,3.9-2,7.8-2,12.1V151
	C546.1,152.3,545,153.3,543.7,153.3"/>
<path class="st1" d="M237.9,141.6c-2.3-3.1-4.7-5.7-4.7-11.5v-19.3c0-8.2,0.6-15.7-5.5-21.3c-4.8-4.6-12.6-6.2-18.7-6.2
	c-11.8,0-25,4.4-27.7,19c-0.3,1.5,0.8,2.4,1.9,2.6l12,1.3c1.1-0.1,1.9-1.2,2.2-2.3c1-5,5.2-7.4,10-7.4c2.5,0,5.5,0.9,7,3.2
	c1.7,2.5,1.5,6,1.5,9v1.6c-7.2,0.8-16.6,1.3-23.3,4.3c-7.8,3.4-13.2,10.2-13.2,20.3c0,12.9,8.1,19.3,18.6,19.3
	c8.8,0,13.6-2.1,20.5-9c2.3,3.3,3,4.8,7.1,8.3c0.9,0.5,2.1,0.4,2.9-0.3l0,0c2.5-2.2,7-6.1,9.5-8.2
	C238.9,144.1,238.7,142.8,237.9,141.6z M213.5,136.1c-2,3.5-5.1,5.6-8.6,5.6c-4.8,0-7.5-3.6-7.5-9c0-10.6,9.5-12.5,18.4-12.5v2.7
	C215.8,127.7,215.9,131.8,213.5,136.1z"/>
<path class="st1" d="M400.5,141.6c-2.3-3.1-4.7-5.7-4.7-11.5v-19.3c0-8.2,0.6-15.7-5.5-21.3c-4.8-4.6-12.7-6.2-18.7-6.2
	c-11.8,0-25,4.4-27.7,19c-0.3,1.5,0.8,2.4,1.9,2.6l12,1.3c1.1-0.1,1.9-1.2,2.2-2.3c1-5,5.2-7.4,10-7.4c2.6,0,5.5,0.9,7,3.2
	c1.7,2.5,1.5,6,1.5,9v1.6c-7.2,0.8-16.6,1.3-23.3,4.3c-7.8,3.4-13.2,10.2-13.2,20.3c0,12.9,8.1,19.3,18.6,19.3
	c8.8,0,13.6-2.1,20.4-9c2.3,3.3,3,4.8,7.1,8.3c0.9,0.5,2.1,0.4,2.9-0.3l0,0c2.5-2.2,7-6.1,9.5-8.2
	C401.5,144.1,401.3,142.8,400.5,141.6z M376.1,136.1c-2,3.5-5.1,5.6-8.6,5.6c-4.8,0-7.5-3.6-7.5-9c0-10.6,9.5-12.5,18.4-12.5v2.7
	C378.4,127.7,378.5,131.8,376.1,136.1z"/>
</svg>
