<?xml version="1.0" encoding="iso-8859-1"?>
<!-- Generator: Adobe Illustrator 18.1.1, SVG Export Plug-In . SVG Version: 6.00 Build 0)  -->
<svg version="1.1" id="Capa_1" xmlns="http://www.w3.org/2000/svg" xmlns:xlink="http://www.w3.org/1999/xlink" x="0px" y="0px"
	 viewBox="0 0 25.039 25.039" style="enable-background:new 0 0 25.039 25.039;" xml:space="preserve">
<g>
	<g>
		<path style="fill:#030104;" d="M20.093,17.828l-1.792-5.34L5.351,0c-4.996,0.407-4.39,4.163-4.39,4.163l12.945,12.721l5.555,1.617
			c10.742,12.301-4.858,0.694-4.858,0.694c-6.937-4.395-2.065,3.929-2.065,3.929l0.21-0.228c-2.539-5.783,1.621-2.778,1.621-2.778
			c9.683,6.663,9.715,4.629,9.715,4.629C24.417,21.602,20.093,17.828,20.093,17.828z M13.816,15.695L1.878,3.878
			C1.755,1.442,4.987,0.895,4.987,0.895L17.17,12.408C14.611,12.953,13.816,15.695,13.816,15.695z M18.388,17.46l-3.596-1.156
			c0,0,0.732-2.497,3.228-2.864l1.096,3.353C19.116,16.792,18.388,16.912,18.388,17.46z"/>
	</g>
</g>
<g>
</g>
<g>
</g>
<g>
</g>
<g>
</g>
<g>
</g>
<g>
</g>
<g>
</g>
<g>
</g>
<g>
</g>
<g>
</g>
<g>
</g>
<g>
</g>
<g>
</g>
<g>
</g>
<g>
</g>
</svg>
