<?xml version="1.0" encoding="iso-8859-1"?>
<!-- Generator: Adobe Illustrator 19.0.0, SVG Export Plug-In . SVG Version: 6.00 Build 0)  -->
<svg version="1.1" id="Layer_1" xmlns="http://www.w3.org/2000/svg" xmlns:xlink="http://www.w3.org/1999/xlink" x="0px" y="0px"
	 viewBox="0 0 512 512" style="enable-background:new 0 0 512 512;" xml:space="preserve">
<g>
	<g>
		<path d="M493.887,266.48h-70.475l-42.567-81.125h43.004c10.003,0,18.113-8.11,18.113-18.113V62.764
			c0-10.003-8.11-18.113-18.113-18.113H18.113C8.11,44.651,0,52.761,0,62.764c0,12.56,0,317.183,0,339.268v0.006
			c0,10.003,8.11,18.113,18.113,18.113c54.578,0,69.034-0.006,70.204-0.006c18.141,62.905,107.666,62.971,125.826,0h64.411
			c18.14,62.901,107.655,62.975,125.813,0h89.519c10.003,0,18.113-8.11,18.113-18.113c0-12.432,0-104.897,0-117.341v-0.099
			C512,274.59,503.89,266.48,493.887,266.48z M417.048,302.706L417.048,302.706C417.047,302.707,417.047,302.706,417.048,302.706z
			 M382.501,266.48H254.625v-81.125h85.31L382.501,266.48z M36.226,80.878h369.509v68.251c-14.669,0-349.527,0-369.509,0V80.878z
			 M36.226,185.355h50.975c0,0,0,81.125,0,81.125H36.226V185.355z M58.725,383.92H36.226v-22.493h22.499V383.92z M151.231,431.287
			c-16.13,0-29.255-13.124-29.255-29.254c0-16.124,13.124-29.243,29.255-29.243c16.132,0,29.255,13.119,29.255,29.243
			C180.486,418.164,167.362,431.287,151.231,431.287z M218.398,383.92h-4.235c-15.837-54.858-89.813-64.601-119.211-15.303v-25.303
			c0-10.003-8.11-18.113-18.113-18.113H36.226v-22.395h182.172V383.92z M218.398,266.48h-94.97v-81.125h94.97V266.48z
			 M341.467,431.287c-16.13,0-29.255-13.124-29.255-29.254c0-16.124,13.124-29.243,29.255-29.243
			c16.124,0,29.242,13.119,29.242,29.243C370.709,418.164,357.591,431.287,341.467,431.287z M475.774,383.92h-71.387v0
			c-18.397-63.687-107.927-62.09-125.853,0h-23.909v-81.115c158.381,0,162.357-0.089,162.424-0.098v40.709
			c0,10.003,8.11,18.113,18.113,18.113h40.612V383.92z M475.774,325.303h-22.499v-22.498h22.499V325.303z"/>
	</g>
</g>
<g>
</g>
<g>
</g>
<g>
</g>
<g>
</g>
<g>
</g>
<g>
</g>
<g>
</g>
<g>
</g>
<g>
</g>
<g>
</g>
<g>
</g>
<g>
</g>
<g>
</g>
<g>
</g>
<g>
</g>
</svg>
